<?xml version="1.0" standalone="no"?>
<!DOCTYPE svg PUBLIC "-//W3C//DTD SVG 20010904//EN"
 "http://www.w3.org/TR/2001/REC-SVG-20010904/DTD/svg10.dtd">
<svg version="1.0" xmlns="http://www.w3.org/2000/svg"
 width="512.000000pt" height="512.000000pt" viewBox="0 0 512.000000 512.000000"
 preserveAspectRatio="xMidYMid meet">
<metadata>
Created by potrace 1.16, written by Peter Selinger 2001-2019
</metadata>
<g transform="translate(0.000000,512.000000) scale(0.100000,-0.100000)"
fill="#000000" stroke="none">
<path d="M1196 4455 c-60 -23 -99 -57 -130 -115 -25 -47 -28 -59 -24 -128 4
-75 7 -81 87 -227 115 -207 125 -222 159 -229 20 -5 80 10 203 48 262 82 272
87 319 169 38 67 42 162 9 232 -43 92 -152 153 -254 142 -49 -5 -53 -4 -78 29
-64 79 -196 115 -291 79z m133 -169 c14 -8 36 -38 50 -67 35 -73 65 -85 146
-57 64 21 95 18 125 -12 25 -25 26 -77 3 -102 -9 -10 -75 -37 -147 -60 -72
-22 -136 -43 -142 -45 -17 -6 -154 248 -154 285 0 21 8 37 26 51 31 24 59 26
93 7z"/>
<path d="M2685 4360 c-80 -20 -159 -32 -235 -36 -100 -5 -123 -10 -178 -36
-74 -35 -125 -95 -148 -177 -24 -82 -14 -144 55 -328 l61 -162 0 -178 0 -179
-137 -33 c-76 -19 -143 -36 -149 -38 -7 -2 -17 13 -24 34 -35 112 -153 253
-247 296 -46 20 -111 25 -233 16 -14 -1 -58 4 -97 12 -61 11 -85 11 -145 0
-40 -8 -84 -13 -98 -12 -186 13 -242 -2 -335 -90 -104 -98 -147 -193 -190
-411 -35 -181 -19 -258 73 -338 40 -36 118 -70 159 -70 28 0 16 -19 -150 -248
-77 -107 -162 -231 -189 -275 -82 -139 -154 -345 -177 -512 -7 -49 -17 -75
-34 -94 -38 -39 -107 -186 -107 -224 0 -25 25 -75 91 -187 108 -181 136 -213
209 -243 30 -12 80 -36 110 -54 121 -69 159 -76 430 -81 276 -4 349 5 457 58
69 34 161 112 193 166 12 19 25 34 28 34 4 0 18 -20 31 -46 50 -93 177 -183
290 -204 32 -6 263 -10 570 -10 558 0 575 1 681 55 95 48 177 153 206 265 l11
45 36 -78 c69 -149 200 -251 357 -277 48 -8 147 -11 293 -8 210 4 226 6 302
32 44 15 102 42 129 59 28 17 70 41 96 53 60 28 83 56 190 237 99 165 105 188
70 258 -16 31 -22 64 -24 147 -4 125 -21 197 -83 347 -75 180 -71 266 20 418
69 117 61 225 -23 301 -78 70 -181 73 -269 8 -33 -25 -133 -168 -177 -254 -13
-25 -31 -74 -41 -108 l-17 -61 -14 27 c-27 52 -27 132 2 214 64 179 73 347 31
559 -28 143 -45 171 -104 171 -33 0 -47 -11 -156 -120 -117 -118 -121 -120
-164 -120 -44 0 -48 3 -166 120 -102 100 -127 120 -152 120 -42 0 -81 -33 -89
-76 l-6 -35 -54 51 c-74 70 -146 100 -376 156 l-198 48 0 191 c0 185 1 194 29
276 40 116 56 150 106 233 23 39 48 91 55 116 22 82 -4 173 -67 237 -74 73
-152 84 -318 43z m196 -169 c37 -37 36 -55 -1 -115 -56 -87 -97 -180 -150
-334 -44 -128 -58 -157 -87 -182 -27 -24 -43 -30 -81 -30 -52 0 -104 26 -122
60 -26 49 -160 417 -160 440 0 14 9 39 20 57 34 56 57 64 202 74 86 5 165 17
223 33 117 31 121 31 156 -3z m-161 -860 l0 -70 -47 -7 c-27 -5 -77 -8 -113
-8 -36 0 -86 3 -112 8 l-48 7 0 65 c0 35 2 64 4 64 2 0 23 -7 46 -15 61 -21
175 -19 225 4 22 11 41 20 43 20 1 1 2 -30 2 -68z m-1371 48 c25 -9 43 -30 85
-103 77 -131 108 -222 109 -321 1 -76 -6 -103 -161 -595 -89 -283 -166 -521
-170 -528 -4 -7 -137 -67 -296 -133 l-288 -121 -49 12 c-28 7 -62 10 -78 8
-27 -4 -27 -3 -21 31 42 216 112 355 321 641 82 113 160 228 173 256 41 84 52
167 37 293 -21 176 -1 264 104 440 70 117 84 129 161 130 23 1 55 -4 73 -10z
m-415 -86 c-74 -129 -97 -215 -98 -365 -1 -71 -5 -128 -9 -128 -25 0 -70 36
-82 64 -13 30 -11 47 11 157 36 176 90 282 168 330 53 33 55 21 10 -58z m696
62 c47 -24 129 -139 142 -197 2 -10 -11 -26 -34 -41 l-37 -26 -16 54 c-8 29
-34 92 -58 139 -24 47 -39 86 -35 86 5 0 22 -7 38 -15z m765 -266 c69 -16 277
-13 348 4 58 15 58 14 272 -39 271 -67 319 -90 371 -179 21 -37 174 -516 174
-547 0 -4 -107 -8 -237 -8 -229 0 -237 -1 -260 -22 -16 -15 -23 -33 -23 -57 0
-36 176 -700 206 -775 8 -21 26 -54 39 -74 14 -20 21 -39 17 -43 -30 -29 -327
-108 -482 -130 -120 -17 -397 -17 -515 -1 -158 22 -454 102 -487 131 -4 4 3
23 17 43 13 20 31 53 39 74 29 73 206 739 206 773 0 22 -8 43 -22 58 -21 23
-24 23 -260 23 -131 0 -238 4 -238 8 0 5 33 120 74 257 114 379 112 378 453
465 126 32 235 56 243 54 8 -2 38 -8 65 -15z m1525 -374 l119 0 75 74 74 74 7
-47 c4 -27 5 -94 3 -149 -4 -81 -12 -120 -37 -192 -78 -218 -42 -386 114 -533
41 -39 75 -78 75 -86 0 -9 18 -55 39 -103 21 -49 42 -102 46 -120 l6 -32 -158
65 c-87 36 -205 85 -263 109 -58 24 -108 49 -112 57 -4 7 -66 198 -138 425
-135 428 -144 470 -124 573 l7 32 74 -74 74 -73 119 0z m791 -275 c10 -6 19
-16 19 -23 0 -7 -22 -57 -50 -112 -54 -106 -70 -169 -70 -269 0 -78 17 -143
73 -281 47 -116 67 -195 48 -195 -6 0 -34 11 -63 23 -52 23 -53 25 -65 80 -7
32 -31 101 -54 155 -92 214 -78 330 64 542 44 66 64 89 75 90 2 0 12 -5 23
-10z m-2826 -302 c-2 -7 -40 -144 -84 -305 -44 -161 -87 -305 -95 -321 -25
-48 -65 -91 -110 -116 -46 -27 -1024 -396 -1048 -396 -36 0 -51 18 -128 145
l-80 134 22 45 c19 41 29 49 91 75 60 25 75 27 111 19 22 -5 55 -7 72 -5 48 8
687 266 705 285 9 9 49 115 89 235 l72 217 194 0 c150 0 192 -3 189 -12z
m1805 -205 c40 -120 80 -226 89 -235 18 -19 657 -277 705 -285 17 -2 50 0 72
5 36 8 51 6 111 -19 62 -26 72 -34 91 -75 l22 -45 -80 -134 c-77 -127 -92
-145 -128 -145 -24 0 -1002 369 -1048 396 -45 25 -85 68 -110 116 -8 16 -51
160 -95 321 -44 161 -82 298 -84 305 -3 9 39 12 189 12 l194 0 72 -217z
m-2124 -775 c-19 -97 -100 -192 -204 -241 l-67 -32 -210 -3 c-115 -2 -234 -1
-264 3 l-56 7 395 149 c217 81 399 148 404 149 5 0 6 -15 2 -32z m2443 -165
c-5 -13 -9 -45 -9 -70 l0 -46 -67 6 c-149 12 -243 87 -292 229 l-19 55 198
-75 c196 -73 199 -74 189 -99z m-2039 122 c235 -67 503 -96 733 -77 78 6 185
19 237 28 82 14 287 67 344 90 18 7 19 4 13 -45 -12 -101 -86 -188 -184 -217
-43 -13 -131 -14 -575 -12 -573 3 -539 0 -623 63 -40 30 -83 111 -92 171 -6
44 -5 47 13 40 10 -4 71 -23 134 -41z m2287 -186 c32 -12 62 -25 66 -29 14
-12 -125 -21 -140 -9 -21 18 -15 59 8 59 5 0 34 -10 66 -21z"/>
<path d="M3838 3980 c-42 -12 -94 -48 -124 -83 -25 -30 -30 -32 -89 -29 -107
6 -211 -58 -251 -154 -21 -49 -17 -150 6 -203 39 -84 73 -105 299 -177 168
-54 210 -64 235 -57 26 7 43 29 108 143 131 230 139 248 140 323 1 142 -108
249 -251 246 -25 0 -58 -4 -73 -9z m126 -181 c18 -14 26 -30 26 -51 0 -42
-137 -291 -156 -284 -8 3 -72 24 -143 46 -71 22 -136 49 -145 59 -22 24 -20
77 4 101 29 29 65 34 113 16 83 -31 136 -15 157 49 13 41 62 85 94 85 13 0 35
-9 50 -21z"/>
</g>
</svg>
